<svg width="1893" height="1916" xmlns="http://www.w3.org/2000/svg" xmlns:xlink="http://www.w3.org/1999/xlink" overflow="hidden"><defs><clipPath id="clip0"><rect x="1278" y="261" width="1893" height="1916"/></clipPath></defs><g clip-path="url(#clip0)" transform="translate(-1278 -261)"><path d="M2029.5 1071.5C2029.5 992.525 2093.52 928.5 2172.5 928.5L2745.5 928.5C2824.48 928.5 2888.5 992.525 2888.5 1071.5L2888.5 1643.5C2888.5 1722.48 2824.48 1786.5 2745.5 1786.5L2172.5 1786.5C2093.52 1786.5 2029.5 1722.48 2029.5 1643.5Z" stroke="#FFFFFF" stroke-width="4.58333" stroke-linecap="butt" stroke-linejoin="miter" stroke-miterlimit="8" stroke-opacity="1" fill="#FFFFFF" fill-rule="evenodd" fill-opacity="1"/><path d="M2060.5 1092.17C2060.5 1018.9 2119.9 959.5 2193.17 959.5L2723.83 959.5C2797.1 959.5 2856.5 1018.9 2856.5 1092.17L2856.5 1622.83C2856.5 1696.1 2797.1 1755.5 2723.83 1755.5L2193.17 1755.5C2119.9 1755.5 2060.5 1696.1 2060.5 1622.83Z" stroke="#000000" stroke-width="4.58333" stroke-linecap="butt" stroke-linejoin="miter" stroke-miterlimit="8" stroke-opacity="1" fill="#000000" fill-rule="evenodd" fill-opacity="1"/><text fill="#FFFFFF" fill-opacity="1" font-family="Arciform,Arciform_MSFontService,sans-serif" font-style="normal" font-variant="normal" font-weight="700" font-stretch="normal" font-size="440" text-anchor="start" direction="ltr" writing-mode="lr-tb" unicode-bidi="normal" text-decoration="none" transform="matrix(1 0 0 1 1547.12 815)">W M C<tspan fill="#FFFFFF" fill-opacity="1" font-family="Arciform,Arciform_MSFontService,sans-serif" font-style="normal" font-variant="normal" font-weight="700" font-stretch="normal" font-size="440" text-anchor="start" direction="ltr" writing-mode="lr-tb" unicode-bidi="normal" text-decoration="none" x="26.6845" y="492">M</tspan><tspan fill="#FFFFFF" fill-opacity="1" font-family="Arciform,Arciform_MSFontService,sans-serif" font-style="normal" font-variant="normal" font-weight="700" font-stretch="normal" font-size="440" text-anchor="start" direction="ltr" writing-mode="lr-tb" unicode-bidi="normal" text-decoration="none" x="26.6845" y="984">C</tspan></text><path d="M2111.5 1125C2111.5 1060.66 2163.66 1008.5 2228 1008.5L2694 1008.5C2758.34 1008.5 2810.5 1060.66 2810.5 1125L2810.5 1591C2810.5 1655.34 2758.34 1707.5 2694 1707.5L2228 1707.5C2163.66 1707.5 2111.5 1655.34 2111.5 1591Z" stroke="#FFFFFF" stroke-width="4.58333" stroke-linecap="butt" stroke-linejoin="miter" stroke-miterlimit="8" stroke-opacity="1" fill="#FFFFFF" fill-rule="evenodd" fill-opacity="1"/><path d="M2137.5 1141.34C2137.5 1081.78 2185.78 1033.5 2245.34 1033.5L2676.66 1033.5C2736.22 1033.5 2784.5 1081.78 2784.5 1141.34L2784.5 1573.66C2784.5 1633.22 2736.22 1681.5 2676.66 1681.5L2245.34 1681.5C2185.78 1681.5 2137.5 1633.22 2137.5 1573.66Z" stroke="#000000" stroke-width="4.58333" stroke-linecap="butt" stroke-linejoin="miter" stroke-miterlimit="8" stroke-opacity="1" fill="#000000" fill-rule="evenodd" fill-opacity="1"/><path d="M2176.5 1169.5C2176.5 1117.59 2218.59 1075.5 2270.5 1075.5L2646.5 1075.5C2698.41 1075.5 2740.5 1117.59 2740.5 1169.5L2740.5 1545.5C2740.5 1597.41 2698.41 1639.5 2646.5 1639.5L2270.5 1639.5C2218.59 1639.5 2176.5 1597.41 2176.5 1545.5Z" stroke="#FFFFFF" stroke-width="4.58333" stroke-linecap="butt" stroke-linejoin="miter" stroke-miterlimit="8" stroke-opacity="1" fill="#FFFFFF" fill-rule="evenodd" fill-opacity="1"/><path d="M2197.5 1183.5C2197.5 1135.45 2236.45 1096.5 2284.5 1096.5L2632.5 1096.5C2680.55 1096.5 2719.5 1135.45 2719.5 1183.5L2719.5 1531.5C2719.5 1579.55 2680.55 1618.5 2632.5 1618.5L2284.5 1618.5C2236.45 1618.5 2197.5 1579.55 2197.5 1531.5Z" stroke="#000000" stroke-width="4.58333" stroke-linecap="butt" stroke-linejoin="miter" stroke-miterlimit="8" stroke-opacity="1" fill="#000000" fill-rule="evenodd" fill-opacity="1"/><path d="M2232.5 1211.5C2232.5 1169.53 2266.53 1135.5 2308.5 1135.5L2613.5 1135.5C2655.47 1135.5 2689.5 1169.53 2689.5 1211.5L2689.5 1515.5C2689.5 1557.47 2655.47 1591.5 2613.5 1591.5L2308.5 1591.5C2266.53 1591.5 2232.5 1557.47 2232.5 1515.5Z" stroke="#FFFFFF" stroke-width="4.58333" stroke-linecap="butt" stroke-linejoin="miter" stroke-miterlimit="8" stroke-opacity="1" fill="#FFFFFF" fill-rule="evenodd" fill-opacity="1"/><path d="M2249.5 1223C2249.5 1184.06 2281.06 1152.5 2320 1152.5L2602 1152.5C2640.94 1152.5 2672.5 1184.06 2672.5 1223L2672.5 1505C2672.5 1543.94 2640.94 1575.5 2602 1575.5L2320 1575.5C2281.06 1575.5 2249.5 1543.94 2249.5 1505Z" stroke="#000000" stroke-width="4.58333" stroke-linecap="butt" stroke-linejoin="miter" stroke-miterlimit="8" stroke-opacity="1" fill="#000000" fill-rule="evenodd" fill-opacity="1"/><path d="M2284.5 1246.33C2284.5 1213.84 2310.84 1187.5 2343.33 1187.5L2578.67 1187.5C2611.16 1187.5 2637.5 1213.84 2637.5 1246.33L2637.5 1481.67C2637.5 1514.16 2611.16 1540.5 2578.67 1540.5L2343.33 1540.5C2310.84 1540.5 2284.5 1514.16 2284.5 1481.67Z" stroke="#FFFFFF" stroke-width="4.58333" stroke-linecap="butt" stroke-linejoin="miter" stroke-miterlimit="8" stroke-opacity="1" fill="#FFFFFF" fill-rule="evenodd" fill-opacity="1"/><path d="M2297.5 1255C2297.5 1224.9 2321.9 1200.5 2352 1200.5L2570 1200.5C2600.1 1200.5 2624.5 1224.9 2624.5 1255L2624.5 1473C2624.5 1503.1 2600.1 1527.5 2570 1527.5L2352 1527.5C2321.9 1527.5 2297.5 1503.1 2297.5 1473Z" stroke="#000000" stroke-width="4.58333" stroke-linecap="butt" stroke-linejoin="miter" stroke-miterlimit="8" stroke-opacity="1" fill="#000000" fill-rule="evenodd" fill-opacity="1"/><path d="M2321.5 1273C2321.5 1247.32 2342.32 1226.5 2368 1226.5L2554 1226.5C2579.68 1226.5 2600.5 1247.32 2600.5 1273L2600.5 1460C2600.5 1485.68 2579.68 1506.5 2554 1506.5L2368 1506.5C2342.32 1506.5 2321.5 1485.68 2321.5 1460Z" stroke="#FFFFFF" stroke-width="4.58333" stroke-linecap="butt" stroke-linejoin="miter" stroke-miterlimit="8" stroke-opacity="1" fill="#FFFFFF" fill-rule="evenodd" fill-opacity="1"/><path d="M2331.5 1280.5C2331.5 1256.75 2350.75 1237.5 2374.5 1237.5L2547.5 1237.5C2571.25 1237.5 2590.5 1256.75 2590.5 1280.5L2590.5 1452.51C2590.5 1476.26 2571.25 1495.51 2547.5 1495.51L2374.5 1495.51C2350.75 1495.51 2331.5 1476.26 2331.5 1452.51Z" stroke="#000000" stroke-width="4.58333" stroke-linecap="butt" stroke-linejoin="miter" stroke-miterlimit="8" stroke-opacity="1" fill="#000000" fill-rule="evenodd" fill-opacity="1"/><path d="M2353.5 1298.17C2353.5 1278.47 2369.47 1262.5 2389.17 1262.5L2531.83 1262.5C2551.53 1262.5 2567.5 1278.47 2567.5 1298.17L2567.5 1440.83C2567.5 1460.53 2551.53 1476.5 2531.83 1476.5L2389.17 1476.5C2369.47 1476.5 2353.5 1460.53 2353.5 1440.83Z" stroke="#FFFFFF" stroke-width="4.58333" stroke-linecap="butt" stroke-linejoin="miter" stroke-miterlimit="8" stroke-opacity="1" fill="#FFFFFF" fill-rule="evenodd" fill-opacity="1"/><path d="M2361.5 1303.5C2361.5 1285.27 2376.27 1270.5 2394.5 1270.5L2527.5 1270.5C2545.73 1270.5 2560.5 1285.27 2560.5 1303.5L2560.5 1435.5C2560.5 1453.73 2545.73 1468.5 2527.5 1468.5L2394.5 1468.5C2376.27 1468.5 2361.5 1453.73 2361.5 1435.5Z" stroke="#000000" stroke-width="4.58333" stroke-linecap="butt" stroke-linejoin="miter" stroke-miterlimit="8" stroke-opacity="1" fill="#000000" fill-rule="evenodd" fill-opacity="1"/></g></svg>